<svg width="40" height="40" viewBox="0 0 40 40" fill="none" xmlns="http://www.w3.org/2000/svg">
<path d="M16.0335 9H8.71545C8.32004 9 8 9.31673 8 9.70805V30.292C8 30.6833 8.32004 31 8.71545 31H16.0335C16.4289 31 16.7489 30.6833 16.7489 30.292V9.70805C16.7489 9.31673 16.4289 9 16.0335 9Z" fill="#FF470B"/>
<path d="M19.2238 20.8165C18.8296 20.8165 18.5061 21.1344 18.5339 21.5246C18.9003 26.7884 23.3264 30.9438 28.7311 30.9438H30.2849C30.6804 30.9438 31.0004 30.6271 31.0004 30.2357V21.5223C31.0004 21.1309 30.6804 20.8142 30.2849 20.8142H19.2238V20.8165Z" fill="#FF470B"/>
<path d="M25.6883 9.0023L20.7706 9C20.4192 9 20.1201 9.25246 20.0644 9.59559L18.6439 18.3079C18.5744 18.7382 18.9095 19.1284 19.3501 19.1284H20.7787C26.1834 19.1284 30.6072 14.9731 30.9759 9.71034C31.0026 9.32017 30.6802 9.0023 30.2848 9.0023H25.6871H25.6883Z" fill="#FF470B"/>
</svg>
